<?xml version="1.0" encoding="utf-8"?>
<svg xmlns="http://www.w3.org/2000/svg" width="1200" height="800" viewBox="0 0 1200 800" role="img" aria-labelledby="title desc">
  <title id="title">Manual load combination</title>
  <desc id="desc">Static structural result preview exported from StructuralSolver2D.</desc>
  <style>
    .background { fill: #ffffff; }
    .frame { fill: none; stroke: #d1d5db; stroke-width: 1; }
    .member.undeformed { stroke: #64748b; stroke-width: 2; fill: none; }
    .member.deformed { stroke: #dc2626; stroke-width: 2.2; fill: none; }
    .diagram.normal-force { stroke: #2563eb; stroke-width: 1.8; fill: none; }
    .diagram.shear-force { stroke: #059669; stroke-width: 1.8; fill: none; }
    .diagram.bending-moment { stroke: #7c3aed; stroke-width: 1.8; fill: none; }
    .node { fill: #0f172a; }
    .node-label { fill: #111827; font-family: Arial, Helvetica, sans-serif; font-size: 12px; }
    .title { fill: #111827; font-family: Arial, Helvetica, sans-serif; font-size: 20px; font-weight: bold; }
    .caption { fill: #4b5563; font-family: Arial, Helvetica, sans-serif; font-size: 12px; }
    .legend-label { fill: #111827; font-family: Arial, Helvetica, sans-serif; font-size: 12px; }
  </style>
  <rect class="background" x="0" y="0" width="1200" height="800"/>
  <rect class="frame" x="0.5" y="0.5" width="1199" height="799"/>
  <text class="title" x="32" y="26">Manual load combination</text>
  <text class="caption" x="32" y="44">Deformation scale: 100 | Nodes: 2 | Members: 1</text>
  <g id="undeformed-model">
    <line class="member undeformed" x1="99.92" y1="281.476" x2="779.122" y2="281.476"/>
    <circle class="node" cx="99.92" cy="281.476" r="3"/>
    <text class="node-label" x="105.92" y="275.476">A</text>
    <circle class="node" cx="779.122" cy="281.476" r="3"/>
    <text class="node-label" x="785.122" y="275.476">B</text>
  </g>
  <g id="diagrams">
    <polyline class="diagram normal-force" points="99.92,281.476 133.88,281.476 167.84,281.476 201.801,281.476 235.761,281.476 269.721,281.476 303.681,281.476 337.641,281.476 371.601,281.476 405.561,281.476 439.521,281.476 473.481,281.476 507.442,281.476 541.402,281.476 575.362,281.476 609.322,281.476 643.282,281.476 677.242,281.476 711.202,281.476 745.162,281.476 779.122,281.476"/>
    <polyline class="diagram shear-force" points="99.92,149.031 133.88,162.276 167.84,175.52 201.801,188.765 235.761,202.009 269.721,215.254 303.681,228.498 337.641,241.742 371.601,254.987 405.561,268.231 439.521,281.476 473.481,294.72 507.442,307.965 541.402,321.209 575.362,334.454 609.322,347.698 643.282,360.942 677.242,374.187 711.202,387.431 745.162,400.676 779.122,413.92"/>
    <polyline class="diagram bending-moment" points="99.92,281.476 133.88,250.02 167.84,221.876 201.801,197.042 235.761,175.52 269.721,157.309 303.681,142.409 337.641,130.82 371.601,122.542 405.561,117.576 439.521,115.92 473.481,117.576 507.442,122.542 541.402,130.82 575.362,142.409 609.322,157.309 643.282,175.52 677.242,197.042 711.202,221.876 745.162,250.02 779.122,281.476"/>
  </g>
  <g id="deformed-shape">
    <polyline class="member deformed" points="99.92,281.476 133.88,359.491 167.84,429.293 201.801,490.884 235.761,544.262 269.721,589.429 303.681,626.383 337.641,655.125 371.601,675.656 405.561,687.974 439.521,692.08 473.481,687.974 507.442,675.656 541.402,655.125 575.362,626.383 609.322,589.429 643.282,544.262 677.242,490.884 711.202,429.293 745.162,359.491 779.122,281.476"/>
  </g>
  <g id="legend">
    <text class="legend-label" x="980" y="36">Legend</text>
    <line class="member undeformed" x1="980" y1="54" x2="1008" y2="54"/>
    <text class="legend-label" x="1016" y="58">Undeformed model</text>
    <line class="member deformed" x1="980" y1="72" x2="1008" y2="72"/>
    <text class="legend-label" x="1016" y="76">Deformed shape</text>
    <line class="diagram normal-force" x1="980" y1="90" x2="1008" y2="90"/>
    <text class="legend-label" x="1016" y="94">Normal force N</text>
    <line class="diagram shear-force" x1="980" y1="108" x2="1008" y2="108"/>
    <text class="legend-label" x="1016" y="112">Shear force V</text>
    <line class="diagram bending-moment" x1="980" y1="126" x2="1008" y2="126"/>
    <text class="legend-label" x="1016" y="130">Bending moment M</text>
  </g>
</svg>
