<?xml version="1.0" encoding="utf-8"?>
<svg xmlns="http://www.w3.org/2000/svg" width="1200" height="800" viewBox="0 0 1200 800" role="img" aria-labelledby="title desc">
  <title id="title">Simply supported beam with uniform load</title>
  <desc id="desc">Static structural result preview exported from StructuralSolver2D.</desc>
  <style>
    .background { fill: #ffffff; }
    .frame { fill: none; stroke: #d1d5db; stroke-width: 1; }
    .member.undeformed { stroke: #64748b; stroke-width: 2; fill: none; }
    .member.deformed { stroke: #dc2626; stroke-width: 2.2; fill: none; }
    .diagram.normal-force { stroke: #2563eb; stroke-width: 1.8; fill: none; }
    .diagram.shear-force { stroke: #059669; stroke-width: 1.8; fill: none; }
    .diagram.bending-moment { stroke: #7c3aed; stroke-width: 1.8; fill: none; }
    .node { fill: #0f172a; }
    .node-label { fill: #111827; font-family: Arial, Helvetica, sans-serif; font-size: 12px; }
    .title { fill: #111827; font-family: Arial, Helvetica, sans-serif; font-size: 20px; font-weight: bold; }
    .caption { fill: #4b5563; font-family: Arial, Helvetica, sans-serif; font-size: 12px; }
    .legend-label { fill: #111827; font-family: Arial, Helvetica, sans-serif; font-size: 12px; }
  </style>
  <rect class="background" x="0" y="0" width="1200" height="800"/>
  <rect class="frame" x="0.5" y="0.5" width="1199" height="799"/>
  <text class="title" x="32" y="26">Simply supported beam with uniform load</text>
  <text class="caption" x="32" y="44">Deformation scale: 100 | Nodes: 2 | Members: 1</text>
  <g id="undeformed-model">
    <line class="member undeformed" x1="126.667" y1="371.848" x2="1073.333" y2="371.848"/>
    <circle class="node" cx="126.667" cy="371.848" r="3"/>
    <text class="node-label" x="132.667" y="365.848">A</text>
    <circle class="node" cx="1073.333" cy="371.848" r="3"/>
    <text class="node-label" x="1079.333" y="365.848">B</text>
  </g>
  <g id="diagrams">
    <polyline class="diagram normal-force" points="126.667,371.848 174,371.848 221.333,371.848 268.667,371.848 316,371.848 363.333,371.848 410.667,371.848 458,371.848 505.333,371.848 552.667,371.848 600,371.848 647.333,371.848 694.667,371.848 742,371.848 789.333,371.848 836.667,371.848 884,371.848 931.333,371.848 978.667,371.848 1026,371.848 1073.333,371.848"/>
    <polyline class="diagram shear-force" points="126.667,277.181 174,286.648 221.333,296.115 268.667,305.581 316,315.048 363.333,324.515 410.667,333.981 458,343.448 505.333,352.915 552.667,362.381 600,371.848 647.333,381.315 694.667,390.781 742,400.248 789.333,409.715 836.667,419.181 884,428.648 931.333,438.115 978.667,447.581 1026,457.048 1073.333,466.515"/>
    <polyline class="diagram bending-moment" points="126.667,371.848 174,349.365 221.333,329.248 268.667,311.498 316,296.115 363.333,283.098 410.667,272.448 458,264.165 505.333,258.248 552.667,254.698 600,253.515 647.333,254.698 694.667,258.248 742,264.165 789.333,272.448 836.667,283.098 884,296.115 931.333,311.498 978.667,329.248 1026,349.365 1073.333,371.848"/>
  </g>
  <g id="deformed-shape">
    <polyline class="member deformed" points="126.667,371.848 174,427.61 221.333,477.503 268.667,521.525 316,559.679 363.333,591.962 410.667,618.376 458,638.92 505.333,653.594 552.667,662.398 600,665.333 647.333,662.398 694.667,653.594 742,638.92 789.333,618.376 836.667,591.962 884,559.679 931.333,521.525 978.667,477.503 1026,427.61 1073.333,371.848"/>
  </g>
  <g id="legend">
    <text class="legend-label" x="980" y="36">Legend</text>
    <line class="member undeformed" x1="980" y1="54" x2="1008" y2="54"/>
    <text class="legend-label" x="1016" y="58">Undeformed model</text>
    <line class="member deformed" x1="980" y1="72" x2="1008" y2="72"/>
    <text class="legend-label" x="1016" y="76">Deformed shape</text>
    <line class="diagram normal-force" x1="980" y1="90" x2="1008" y2="90"/>
    <text class="legend-label" x="1016" y="94">Normal force N</text>
    <line class="diagram shear-force" x1="980" y1="108" x2="1008" y2="108"/>
    <text class="legend-label" x="1016" y="112">Shear force V</text>
    <line class="diagram bending-moment" x1="980" y1="126" x2="1008" y2="126"/>
    <text class="legend-label" x="1016" y="130">Bending moment M</text>
  </g>
</svg>
